<?xml version="1.0" encoding="UTF-8"?>
<svg version="1.1" xmlns="http://www.w3.org/2000/svg" width="612" height="612">
<path d="M0 0 C23.05688865 -2.36586681 23.05688865 -2.36586681 29.13134766 1.27880859 C32.42685502 4.64040635 34.29209052 8.71002622 36.10546875 13.0078125 C37.44953744 16.00115325 39.30089383 18.57496139 41.1875 21.25 C45.44447795 27.63546692 49.55156543 34.11165272 53.640625 40.60546875 C56.86084772 45.69913881 60.14636752 50.74328301 63.5 55.75 C67.94401758 62.38537194 72.32451304 69.06109262 76.6875 75.75 C77.61369141 77.16877441 77.61369141 77.16877441 78.55859375 78.61621094 C79.161875 79.54208008 79.76515625 80.46794922 80.38671875 81.421875 C80.9801709 82.33259766 81.57362305 83.24332031 82.18505859 84.18164062 C83.45269626 86.15011106 84.70440592 88.12888967 85.94384766 90.11523438 C86.56694824 91.11361328 87.19004883 92.11199219 87.83203125 93.140625 C88.67278198 94.5023584 88.67278198 94.5023584 89.53051758 95.89160156 C90.82998599 98.11419093 90.82998599 98.11419093 93 99 C93.26683594 98.26910156 93.53367187 97.53820312 93.80859375 96.78515625 C95.32935248 93.23007109 97.43251424 90.32625741 99.66015625 87.18359375 C100.9533192 85.07607746 101.55651688 83.41451918 102 81 C101.34 81 100.68 81 100 81 C98.7168915 79.13256509 97.52518881 77.20211328 96.375 75.25 C95.64761536 74.03538937 94.91841003 72.82186745 94.1875 71.609375 C93.81882812 70.99642578 93.45015625 70.38347656 93.0703125 69.75195312 C89.68228157 64.20621636 85.94674833 58.86900988 82.29833984 53.4921875 C80.38139497 50.66480581 78.47187923 47.83249491 76.5625 45 C75.93456543 44.07896484 75.30663086 43.15792969 74.65966797 42.20898438 C74.0720166 41.33564453 73.48436523 40.46230469 72.87890625 39.5625 C72.3485376 38.78003906 71.81816895 37.99757812 71.27172852 37.19140625 C70.04509417 35.07770498 69.5592395 33.35168182 69 31 C67.69562711 29.63832202 66.35921586 28.30693833 65 27 C63.91169461 25.42710092 62.87268145 23.81938599 61.875 22.1875 C58.44100555 16.65869412 54.84952753 11.25224019 51.20068359 5.86401367 C48 1.10642524 48 1.10642524 48 0 C71.95067532 -2.19200589 71.95067532 -2.19200589 78.03222656 1.10009766 C81.10109127 4.1160509 82.56076422 7.9283276 84.09082031 11.88671875 C85.7281451 15.69248765 88.12805937 19.01350835 90.4375 22.4375 C91.37082066 23.87479106 92.30181813 25.31359342 93.23046875 26.75390625 C95.87150502 30.8159701 98.55444221 34.84897898 101.25 38.875 C104.19190441 43.2754423 107.12434529 47.68080636 110 52.125 C110.53625 52.95257813 111.0725 53.78015625 111.625 54.6328125 C113.01530076 57.02634164 114.04037849 59.4071765 115 62 C117.50123494 59.692313 119.21121111 57.26389405 121 54.375 C121.61230469 53.39789063 122.22460938 52.42078125 122.85546875 51.4140625 C123.19497559 50.87168945 123.53448242 50.32931641 123.88427734 49.77050781 C126.00006739 46.41302216 128.15684566 43.08197844 130.3125 39.75 C131.01705322 38.66054077 131.01705322 38.66054077 131.73583984 37.54907227 C135.2280758 32.16188454 138.77569939 26.81379411 142.3527832 21.48266602 C145.6888009 16.49971117 148.93528312 11.46249147 152.13330078 6.38989258 C153.62746243 4.03792021 155.02228585 1.97771415 157 0 C159.70556641 -0.22705078 159.70556641 -0.22705078 163.1015625 -0.1953125 C164.31328125 -0.18886719 165.525 -0.18242187 166.7734375 -0.17578125 C168.04445313 -0.15902344 169.31546875 -0.14226562 170.625 -0.125 C171.90375 -0.11597656 173.1825 -0.10695312 174.5 -0.09765625 C177.66685167 -0.07402303 180.83333424 -0.04107629 184 0 C183.04803546 1.75713961 182.09463189 3.51349965 181.140625 5.26953125 C180.60985352 6.24768799 180.07908203 7.22584473 179.53222656 8.23364258 C177.82769176 11.31109381 176.1227136 14.1949856 174 17 C173.34 17 172.68 17 172 17 C171.89888916 17.5576001 171.79777832 18.1152002 171.69360352 18.68969727 C170.84904711 21.50280436 169.5299555 23.51918695 167.90234375 25.96484375 C167.26901123 26.92447021 166.63567871 27.88409668 165.9831543 28.87280273 C165.30808838 29.88415283 164.63302246 30.89550293 163.9375 31.9375 C158.91982517 39.51893296 154.00588555 47.11575872 149.41796875 54.96484375 C148.71607422 55.97224609 148.71607422 55.97224609 148 57 C147.34 57 146.68 57 146 57 C145.88841553 57.57258545 145.77683105 58.1451709 145.66186523 58.73510742 C144.92128703 61.26935456 143.86240796 63.03592493 142.41015625 65.23828125 C141.8780957 66.05087402 141.34603516 66.8634668 140.79785156 67.70068359 C140.22518555 68.56258301 139.65251953 69.42448242 139.0625 70.3125 C138.4756543 71.20533691 137.88880859 72.09817383 137.28417969 73.01806641 C133.39216477 78.93016193 129.46557642 84.81952955 125.52734375 90.70092773 C122.07982129 95.85612112 118.71994574 101.06443432 115.37890625 106.2890625 C113.60534906 109.06143242 111.81907803 111.82528007 110.02734375 114.5859375 C109.52452881 115.3608252 109.02171387 116.13571289 108.50366211 116.93408203 C107.51696044 118.45378523 106.52951756 119.9730075 105.54125977 121.49169922 C105.09451904 122.18021973 104.64777832 122.86874023 104.1875 123.578125 C103.78917969 124.19075195 103.39085937 124.80337891 102.98046875 125.43457031 C101.939857 127.04048811 101.939857 127.04048811 101 129 C100.34 129 99.68 129 99 129 C98.83177734 129.85851562 98.83177734 129.85851562 98.66015625 130.734375 C97.92776966 133.24789112 96.86145147 135.05930543 95.4375 137.25 C94.98246094 137.95640625 94.52742188 138.6628125 94.05859375 139.390625 C93.53458984 140.18726563 93.53458984 140.18726563 93 141 C89.38641805 139.56383281 88.10654212 137.99953832 86.25 134.625 C84.08624477 130.79511395 81.79112314 127.11164955 79.33203125 123.46484375 C74.98574238 116.98677045 70.70479308 110.46781005 66.4375 103.9375 C65.72142578 102.84373047 65.00535156 101.74996094 64.26757812 100.62304688 C60.30095914 94.55581619 56.37719258 88.46418246 52.49438477 82.34301758 C50.78377995 79.66099268 49.02957885 77.01171546 47.25 74.375 C43.89264703 69.36187645 40.59071054 64.31522161 37.3125 59.25 C36.86100586 58.55310059 36.40951172 57.85620117 35.94433594 57.13818359 C33.71585254 53.68918453 31.51089636 50.22765947 29.33984375 46.7421875 C27.68663675 44.08822708 26.00457533 41.46354015 24.25 38.875 C21.65675247 35.01172612 19.13281789 31.10653106 16.625 27.1875 C11.79177408 19.64011406 6.87459441 12.14827635 1.76953125 4.78125 C0 2 0 2 0 0 Z M72 100 C73 102 73 102 73 102 Z " fill="#7964A1" transform="translate(190,173)"/>
<path d="M0 0 C2.70556641 -0.34057617 2.70556641 -0.34057617 6.1015625 -0.29296875 C7.31328125 -0.28330078 8.525 -0.27363281 9.7734375 -0.26367188 C11.04445313 -0.23853516 12.31546875 -0.21339844 13.625 -0.1875 C14.90375 -0.17396484 16.1825 -0.16042969 17.5 -0.14648438 C20.66708282 -0.11103196 23.83333541 -0.06161441 27 0 C23.61454225 7.29380033 19.30906295 13.8701607 14.875 20.5625 C14.10723051 21.72836387 13.33981753 22.8944626 12.57275391 24.06079102 C7.8402485 31.24921845 3.08035611 38.41969417 -1.7265625 45.55859375 C-4.25533315 49.34971461 -6.68065094 53.20626505 -9.12207031 57.05395508 C-12.23302621 61.93433793 -15.3978949 66.77929967 -18.5625 71.625 C-19.19607422 72.59695312 -19.82964844 73.56890625 -20.48242188 74.5703125 C-21.72521526 76.47481977 -22.97072445 78.37755821 -24.21923828 80.27832031 C-25.40016609 82.08322616 -26.57056817 83.89506573 -27.72998047 85.71386719 C-28.26123535 86.53790039 -28.79249023 87.36193359 -29.33984375 88.2109375 C-29.80640381 88.9436084 -30.27296387 89.6762793 -30.75366211 90.43115234 C-31.16495361 90.94887207 -31.57624512 91.4665918 -32 92 C-32.66 92 -33.32 92 -34 92 C-34.0928125 92.99 -34.0928125 92.99 -34.1875 94 C-35.53332519 98.96920068 -38.36496442 103.36496442 -42 107 C-43.08864442 108.62865802 -44.14687959 110.27774617 -45.1875 111.9375 C-45.81398438 112.93136719 -46.44046875 113.92523438 -47.0859375 114.94921875 C-48.03339844 116.45935547 -48.03339844 116.45935547 -49 118 C-52.94097631 124.26300696 -56.95445761 130.47056934 -61.0625 136.625 C-61.49739746 137.27654053 -61.93229492 137.92808105 -62.38037109 138.59936523 C-64.10620065 141.18088852 -65.83567438 143.75917796 -67.5859375 146.32421875 C-71.62085815 152.25998352 -75.32796722 158.39128447 -79.04272461 164.53051758 C-80.35315423 166.69248148 -81.67278614 168.84830481 -83 171 C-83.38124023 171.62213379 -83.76248047 172.24426758 -84.15527344 172.88525391 C-85.04794871 174.29363289 -86.01644412 175.6535163 -87 177 C-87.66 177 -88.32 177 -89 177 C-89.0825 177.55318909 -89.165 178.10637817 -89.25 178.67633057 C-90.23751961 181.7358894 -92.00756278 183.65964543 -94 186.17871094 C-99.2144897 193.87910385 -99.11890574 201.12755208 -99 210.140625 C-99.00753528 211.76017191 -99.01858399 213.37970589 -99.03295898 214.99920654 C-99.06115921 219.22133628 -99.04226032 223.44193232 -99.01287842 227.66400146 C-98.99134298 231.98833757 -99.01527658 236.31240983 -99.03515625 240.63671875 C-99.06743835 249.09164486 -99.04565399 257.54513524 -99 266 C-106.59 266 -114.18 266 -122 266 C-122.15859223 255.74204534 -122.28682376 245.48491414 -122.3626852 235.22600746 C-122.39910813 230.46156638 -122.44845531 225.69801256 -122.52807617 220.93408203 C-122.60453085 216.33041125 -122.64607244 211.72758996 -122.6641407 207.12333298 C-122.67700461 205.37307753 -122.70212515 203.62286489 -122.7401104 201.8729744 C-122.96353994 191.14660252 -122.58095146 184.26857776 -115 176 C-114.12579843 174.72924088 -113.27142397 173.4441758 -112.453125 172.13671875 C-112.08316406 171.55986328 -111.71320313 170.98300781 -111.33203125 170.38867188 C-110.97496094 169.82728516 -110.61789062 169.26589844 -110.25 168.6875 C-109.87746094 168.10677734 -109.50492187 167.52605469 -109.12109375 166.92773438 C-107.46793895 164.34285452 -105.86348703 161.75720193 -104.359375 159.08203125 C-103.68648438 158.05142578 -103.68648438 158.05142578 -103 157 C-102.34 157 -101.68 157 -101 157 C-100.89888916 156.4423999 -100.79777832 155.8847998 -100.69360352 155.31030273 C-99.84904711 152.49719564 -98.5299555 150.48081305 -96.90234375 148.03515625 C-95.95234497 146.59571655 -95.95234497 146.59571655 -94.9831543 145.12719727 C-94.30808838 144.11584717 -93.63302246 143.10449707 -92.9375 142.0625 C-87.91982517 134.48106704 -83.00588555 126.88424128 -78.41796875 119.03515625 C-77.95003906 118.36355469 -77.48210937 117.69195312 -77 117 C-76.34 117 -75.68 117 -75 117 C-74.88624023 116.42378906 -74.77248047 115.84757812 -74.65527344 115.25390625 C-73.93637825 112.78116393 -72.93548345 111.08181693 -71.515625 108.9375 C-70.99895264 108.15052734 -70.48228027 107.36355469 -69.94995117 106.55273438 C-69.38896729 105.71033203 -68.8279834 104.86792969 -68.25 104 C-67.06361948 102.19803688 -65.87742698 100.39594995 -64.69140625 98.59375 C-64.08055176 97.66949219 -63.46969727 96.74523437 -62.84033203 95.79296875 C-59.93126646 91.37804303 -57.06178737 86.93760791 -54.1875 82.5 C-49.51104373 75.29735066 -44.78970028 68.12797916 -40 61 C-39.34 60.01 -38.68 59.02 -38 58 C-37.34 58 -36.68 58 -36 58 C-35.938125 57.34 -35.87625 56.68 -35.8125 56 C-34.46667481 51.03079932 -31.63503558 46.63503558 -28 43 C-27.01419359 41.53899948 -26.0614148 40.05563902 -25.125 38.5625 C-24.50882812 37.58539063 -23.89265625 36.60828125 -23.2578125 35.6015625 C-22.04164834 33.66305702 -20.82693068 31.72364935 -19.61230469 29.78417969 C-13.92747715 20.71296239 -8.25600671 11.69097938 -2 3 C-1.34 2.01 -0.68 1.02 0 0 Z " fill="#7964A1" transform="translate(395,173)"/>
<path d="M0 0 C0.33 0 0.66 0 1 0 C1 33 1 66 1 100 C-6.59 100 -14.18 100 -22 100 C-22.18155012 91.45422646 -22.32796255 82.90997951 -22.41449738 74.3627882 C-22.45605376 70.39289767 -22.51231007 66.42440715 -22.60351562 62.45532227 C-22.69116014 58.61669211 -22.73842073 54.77939845 -22.75901794 50.93984413 C-22.77367354 49.48340142 -22.80229185 48.02702272 -22.84584045 46.57115746 C-23.14877436 36.01311463 -21.00619442 30.01509348 -14 22 C-13.22377241 20.78274026 -12.48096834 19.54265266 -11.79296875 18.2734375 C-9.78744293 14.61193284 -7.57930014 11.12789709 -5.3125 7.625 C-4.90966797 6.99722656 -4.50683594 6.36945313 -4.09179688 5.72265625 C-1.13245631 1.13245631 -1.13245631 1.13245631 0 0 Z " fill="#7964A1" transform="translate(335,339)"/>
<path d="" fill="#7964A1" transform="translate(0,0)"/>
</svg>
